Simulation
nRows=31
nColumns=15
endheader
time  TH_x TH_y TH_z SC_y  SC_z  SC_x  AC_y  AC_z  AC_x  GH_y  GH_z  GH_yy  EL_x  PS_y
8.073123595505619  0.000000  0.000000  0.000000  -24.8728281340524  4.602870174934809  6.011941053056671  58.425272489493764  7.725076233030641  1.8562563259200449  -148.87912118819477  4.547807914612452  -154.13969902708047  16.776261467277827  120.000000
8.113288389513109  0.000000  0.000000  0.000000  -24.593684341168736  4.692235259048904  6.028107383641917  58.250918842840484  7.416557221235531  1.810995691425366  -151.09717868018194  3.74240731859874  -152.2110990471291  16.290551752969865  120.000000
8.153453183520599  0.000000  0.000000  0.000000  -24.301737999971014  4.812597866185195  6.070024698718101  58.087873421539975  7.1515231101110635  1.8014274999703939  -157.02174690487539  2.7984331994644425  -146.777159959495  15.745694962589338  120.000000
8.19361797752809  0.000000  0.000000  0.000000  -24.00227083899242  4.975276311465582  6.155504025156371  57.94171290437927  6.949704008795197  1.8383759708633611  -173.09914713757664  1.7788778172366597  -131.3949675995702  15.161465540202212  120.000000
8.23378277153558  0.000000  0.000000  0.000000  -23.70423502203444  5.190427644191786  6.302010886228856  57.82077883681333  6.828743403984051  1.9337229916491814  134.96679532128718  1.157296360447231  -80.36069666252524  14.56118435576293  120.000000
8.273947565543072  0.000000  0.000000  0.000000  -23.420636484290608  5.4664817162479995  6.522853925344139  57.733674413495976  6.799791562120087  2.0993231259099114  81.71258817232089  2.0172015719399288  -28.205533381423546  13.969263873326488  120.000000
8.314112359550561  0.000000  0.000000  0.000000  -23.166822183997436  5.806654832913447  6.825339222902934  57.68666875924893  6.865075862464655  2.3459357246956745  64.50923054902732  3.659920336439307  -12.288309139388584  13.407519602921528  120.000000
8.354277153558053  0.000000  0.000000  0.000000  -22.958412732461944  6.210165186672803  7.211450450306399  57.68453174892787  7.018616056631001  2.681713458696768  57.20495360622324  5.616899446996948  -6.4378988490043865  12.892584380147019  120.000000
8.394441947565543  0.000000  0.000000  0.000000  -22.808480808812135  6.673989030887895  7.679675656010607  57.73039436579449  7.248767139546024  3.11231482709506  52.99725528765567  7.796225371693545  -3.8263924310296407  12.434487939037002  120.000000
8.434606741573035  0.000000  0.000000  0.000000  -22.72571134773765  7.191259856636241  8.225887798530675  57.825873911605896  7.540619388248949  3.6407348713985215  50.07805711028691  10.156759616743486  -2.6154738098739734  12.036220013365115  120.000000
8.474771535580524  0.000000  0.000000  0.000000  -22.714333392045383  7.752207324259411  8.843759528896022  57.971452783583146  7.877256756937313  4.267187933523482  47.803704734735206  12.664687685640526  -2.1288283378553854  11.695727896967513  120.000000
8.514936329588014  0.000000  0.000000  0.000000  -22.77493883254604  8.345576450824606  9.525532387684228  58.16705468788529  8.241421563563833  4.98875101090252  45.89946716755907  15.287021987982891  -2.0593102950934368  11.407959163884522  120.000000
8.555101123595506  0.000000  0.000000  0.000000  -22.9054517304735  8.959598207366827  10.26268230372812  58.41204027956484  8.617444614432124  5.79871750856254  44.23297796568487  17.991626088984322  -2.2451746669837247  11.166490084081936  120.000000
8.595265917602996  0.000000  0.000000  0.000000  -23.10242124123348  9.583345846357348  11.04632730709843  58.70406542528942  8.992246003109033  6.687029932106282  42.73293772684135  20.74731305032847  -2.590632136026411  10.964782574815743  120.000000
8.635430711610487  0.000000  0.000000  0.000000  -23.36301689522582  10.207138626550481  11.867404186125091  59.03825697465412  9.355552799366551  7.640290703136429  41.35609626956344  23.52398066734928  -3.033902907997898  10.796874383377387  120.000000
8.675595505617977  0.000000  0.000000  0.000000  -23.685509022163604  10.82289802354952  12.716715333684748  59.4071407843957  9.699848398984654  8.642026816618955  40.07402669953562  26.292959323896923  -3.533959731640236  10.657737108539154  120.000000
8.715760299625469  0.000000  0.000000  0.000000  -24.06834366684909  11.423987171124766  13.585088142335131  59.80144802064448  10.020233439402448  9.673688654480973  38.86756647757545  29.02756497953167  -4.064244848766008  10.543377636334196  120.000000
8.755925093632959  0.000000  0.000000  0.000000  -24.50922287335201  12.004810615562223  14.46335199445032  60.211042758707926  10.31406934458584  10.716035832483819  37.72383997183855  31.703325560188592  -4.608582572404174  10.450935462396345  120.000000
8.79608988764045  0.000000  0.000000  0.000000  -25.004523058805578  12.560773653609136  15.34219208905785  60.62555866047793  10.580409936056752  11.750215964008088  36.63445801299717  34.29796073322373  -5.158087146549376  10.378549862961538  120.000000
8.83625468164794  0.000000  0.000000  0.000000  -25.54913627890199  13.088091099656262  16.212049799496224  61.03484600365453  10.81961073849131  12.758576930980215  35.59410551652803  36.79140766589212  -5.708618325886734  10.324980107716279  120.000000
8.87641947565543  0.000000  0.000000  0.000000  -26.136317233187853  13.583908107972094  17.06325938667432  61.4293695890526  11.03299099172187  13.725296354831242  34.600002346339096  39.16588509934386  -6.258874598884557  10.289264683131147  120.000000
8.916584269662922  0.000000  0.000000  0.000000  -26.757334900869036  14.046034681275655  17.88625187670803  61.801024802923195  11.222565345548722  14.6370225903204  33.65227129826374  41.40609334157924  -6.809364276532679  10.270410118228261  120.000000
8.956749063670411  0.000000  0.000000  0.000000  -27.401466722648326  14.47244544771138  18.671833606434845  62.143596124365104  11.390968772417626  15.483616208277413  32.753688575939904  43.499377604575024  -7.360751433253548  10.267070747007727  120.000000
8.996913857677903  0.000000  0.000000  0.000000  -28.05703583087977  14.861472208483635  19.411929701739965  62.452337635699436  11.541596268596008  16.25823436630163  31.908732043436036  45.436049360367036  -7.912030695134706  10.277145072889116  120.000000
9.037078651685393  0.000000  0.000000  0.000000  -28.712584853609094  15.211755108756364  20.10047120544626  62.723226158684376  11.678761508138912  16.957022819821933  31.12268563850766  47.209813487561945  -8.459337902954957  10.29731820685924  120.000000
9.077243445692885  0.000000  0.000000  0.000000  -29.35751777577067  15.522175252196382  20.733819372442397  62.952516198497975  11.807493555638418  17.578749256995938  30.401272989826207  48.8177198633018  -8.995816022858032  10.323151647880923  120.000000
9.117408239700374  0.000000  0.000000  0.000000  -29.9822319121403  15.79180523025454  21.31053653719153  63.1367699709264  11.933003269858071  18.124141307887808  29.750591943791537  50.25950822197622  -9.512299635488622  10.349614665864088  120.000000
9.157573033707866  0.000000  0.000000  0.000000  -30.577729123822078  16.019759097173324  21.830619342671895  63.27315120725119  12.05989921975022  18.595193641302608  29.177201100235614  51.53647274429162  -9.998634217609627  10.371849204452054  120.000000
9.197737827715356  0.000000  0.000000  0.000000  -31.135018097912425  16.20526015467405  22.29453216109755  63.35990531630391  12.19137760649591  18.99448588854262  28.688265670636028  52.65014240199038  -10.445195565593252  10.386052086580564  120.000000
9.237902621722846  0.000000  0.000000  0.000000  -31.644502586684258  16.347751347162628  22.702311924272397  63.39683455697105  12.328706099327938  19.324553018010384  28.291559942776892  53.60102722660223  -10.844284528713906  10.390147560981074  120.000000
9.278067415730337  0.000000  0.000000  0.000000  -32.09559604295422  16.447060739735427  23.052944748863048  63.385565709445224  12.471020525572374  19.587398415393068  27.995321198396898  54.38770796030338  -11.191061440396798  10.384060767823536  120.000000
